<?xml version="1.0" standalone="no"?>
<!DOCTYPE svg PUBLIC "-//W3C//DTD SVG 20010904//EN"
 "http://www.w3.org/TR/2001/REC-SVG-20010904/DTD/svg10.dtd">
<svg version="1.0" xmlns="http://www.w3.org/2000/svg"
 width="2084.000000pt" height="875.000000pt" viewBox="0 0 2084.000000 875.000000"
 preserveAspectRatio="xMidYMid meet">

<g transform="translate(0.000000,875.000000) scale(0.100000,-0.100000)"
fill="#000000" stroke="none">
<path d="M0 4375 l0 -4375 10420 0 10420 0 0 4375 0 4375 -10420 0 -10420 0 0
-4375z m10007 3659 c13 -4 32 -21 43 -39 57 -93 -20 -179 -131 -146 -21 6 -43
20 -49 31 -13 24 -13 86 0 110 21 39 82 58 137 44z m4897 -28 c55 -52 48 -118
-15 -150 -45 -22 -90 -20 -130 7 -44 29 -52 88 -18 131 45 57 111 62 163 12z
m1286 -446 l0 -420 -90 0 -90 0 0 420 0 420 90 0 90 0 0 -420z m-6730 250 l0
-70 80 0 80 0 0 -65 0 -64 -77 -3 -78 -3 -3 -127 c-3 -155 8 -194 60 -203 18
-3 46 -2 63 3 29 8 30 7 52 -47 21 -52 22 -57 6 -69 -49 -36 -165 -42 -233
-11 -103 47 -114 72 -120 284 l-5 170 -47 3 -48 3 0 65 0 64 50 0 50 0 0 70 0
70 85 0 85 0 0 -70z m-5430 -70 c28 -11 64 -30 81 -42 29 -21 76 -85 68 -92
-2 -2 -20 -11 -39 -21 -19 -10 -47 -27 -62 -38 -22 -16 -30 -18 -42 -8 -8 7
-18 21 -21 31 -6 18 -36 33 -85 44 -44 9 -101 -11 -139 -48 -36 -36 -36 -37
-36 -122 l0 -86 44 -39 c41 -37 47 -39 109 -39 63 0 66 1 102 40 l36 39 45
-24 c24 -14 54 -31 67 -37 12 -6 22 -15 22 -20 0 -21 -85 -98 -133 -119 -42
-19 -69 -24 -142 -24 -78 0 -98 4 -155 30 -150 68 -211 211 -166 383 23 86
115 170 222 202 55 16 170 11 224 -10z m823 -20 c120 -61 167 -140 167 -277 0
-81 -15 -134 -51 -177 -5 -6 -18 -23 -29 -38 -20 -27 -90 -64 -164 -88 -23 -7
-68 -11 -110 -8 -133 9 -245 83 -293 195 -25 59 -22 186 5 243 40 81 65 107
137 143 95 48 89 47 185 44 76 -2 93 -6 153 -37z m859 1 c63 -33 118 -84 147
-140 19 -35 26 -171 12 -228 -34 -135 -184 -231 -346 -221 -141 9 -249 85
-296 208 -23 60 -25 142 -4 200 15 42 74 140 84 140 3 0 22 10 41 22 68 44
120 58 210 55 75 -2 93 -6 152 -36z m866 25 c73 -26 132 -76 166 -140 29 -55
31 -67 31 -161 0 -99 -1 -101 -40 -170 -36 -62 -47 -72 -108 -104 -98 -51
-172 -54 -262 -13 l-65 31 0 -135 0 -134 -90 0 -90 0 0 415 0 415 85 0 85 0 0
-32 c0 -29 1 -30 18 -16 9 9 35 25 57 36 48 25 152 29 213 8z m868 -18 c104
-54 164 -155 164 -275 l0 -53 -224 0 c-146 0 -227 -4 -231 -10 -9 -15 18 -54
60 -86 32 -24 45 -27 110 -27 63 0 80 3 114 26 l41 27 42 -46 c24 -26 43 -51
43 -57 0 -19 -77 -65 -136 -81 -148 -42 -305 1 -392 109 -55 67 -74 147 -57
247 5 35 10 66 10 69 0 22 88 117 132 142 70 40 98 47 193 43 63 -2 91 -8 131
-28z m784 -47 l0 -79 -60 -4 c-52 -4 -65 -9 -95 -38 -19 -19 -40 -50 -45 -70
-5 -19 -10 -106 -10 -192 l0 -158 -90 0 -90 0 0 305 0 305 84 0 85 0 3 -36 3
-36 40 30 c50 36 89 50 138 51 l37 1 0 -79z m635 42 c46 -23 67 -42 90 -79
l30 -49 3 -227 3 -228 -80 0 -81 0 0 38 c0 20 -4 32 -8 27 -4 -6 -27 -24 -51
-40 -40 -27 -52 -30 -127 -30 -73 0 -89 4 -138 30 -67 36 -88 73 -88 155 0 79
18 109 89 145 53 27 68 30 181 33 121 4 122 4 122 28 0 13 -13 38 -29 56 -29
32 -31 33 -113 32 -66 0 -92 -5 -126 -23 -24 -12 -45 -21 -47 -19 -1 2 -17 29
-34 60 l-32 57 38 17 c108 48 136 54 238 51 90 -2 106 -5 160 -34z m2635 18
c71 -27 119 -66 141 -115 16 -36 19 -68 19 -263 l0 -223 -80 0 -80 0 0 35 0
35 -21 -21 c-93 -93 -306 -70 -368 41 -50 89 -21 185 70 235 50 27 63 29 182
33 l128 4 -6 32 c-4 17 -18 42 -31 56 -23 23 -31 25 -112 24 -73 0 -95 -4
-124 -22 -19 -12 -39 -22 -44 -22 -5 0 -21 27 -36 60 l-26 60 31 17 c105 55
263 70 357 34z m1270 0 c20 -6 44 -17 55 -25 17 -12 18 -18 7 -52 -7 -22 -19
-47 -26 -57 -13 -17 -17 -17 -60 -3 -46 16 -170 21 -214 10 -27 -8 -40 -50
-21 -69 8 -8 61 -23 119 -35 168 -32 227 -73 237 -165 8 -71 -27 -139 -87
-169 -72 -36 -143 -49 -234 -43 -70 5 -203 40 -222 60 -7 7 46 127 57 127 4 0
24 -10 44 -21 51 -30 212 -40 250 -15 29 19 33 51 8 64 -10 5 -66 20 -126 32
-126 27 -190 61 -213 115 -43 104 18 209 148 251 50 16 221 13 278 -5z m769
-11 c76 -38 137 -104 160 -173 56 -163 -9 -322 -159 -394 -47 -23 -69 -27
-150 -27 -84 -1 -102 3 -155 27 -77 36 -121 78 -153 147 -71 156 -13 333 132
407 78 40 94 43 191 39 67 -3 101 -10 134 -26z m831 11 c28 -11 67 -31 86 -46
36 -28 73 -87 57 -92 -5 -2 -34 -19 -63 -38 -30 -19 -58 -35 -62 -35 -4 0 -14
13 -22 29 -19 35 -65 55 -129 54 -60 -1 -94 -23 -124 -83 -28 -54 -29 -111 -3
-167 26 -58 69 -83 144 -83 56 0 61 2 97 40 l38 39 48 -27 c96 -53 91 -45 58
-92 -19 -28 -49 -52 -89 -73 -56 -29 -69 -31 -156 -32 -83 0 -103 4 -157 29
-112 51 -183 160 -183 281 0 77 34 165 82 212 41 39 106 78 158 94 50 15 168
10 220 -10z m1200 0 c71 -27 119 -66 141 -115 16 -36 19 -68 19 -263 l0 -223
-80 0 -80 0 0 35 0 35 -21 -21 c-94 -94 -306 -70 -368 42 -19 33 -22 52 -19
98 9 119 79 163 277 169 l123 4 -6 32 c-4 17 -18 42 -31 56 -24 23 -32 25
-113 24 -72 -1 -94 -5 -125 -24 -44 -26 -49 -24 -82 48 l-24 51 41 21 c100 52
257 66 348 31z m1285 4 c132 -45 215 -160 215 -297 l0 -48 -229 0 c-127 0
-232 -4 -235 -9 -7 -11 48 -87 71 -99 59 -30 163 -24 219 14 l36 24 44 -46
c24 -26 44 -50 44 -54 0 -14 -40 -43 -92 -67 -147 -69 -364 -21 -446 99 -84
122 -81 264 9 378 22 28 48 54 57 57 9 3 24 12 33 19 49 42 191 57 274 29z
m-6805 -300 l0 -305 -90 0 -90 0 0 305 0 305 90 0 90 0 0 -305z m391 268 c9
-21 30 -74 48 -118 18 -44 46 -116 62 -159 16 -44 32 -83 37 -88 5 -5 15 8 24
29 8 21 30 72 48 113 17 41 41 99 52 129 11 30 28 72 39 93 l19 38 85 0 85 0
-25 -50 c-14 -27 -25 -55 -25 -61 0 -7 -20 -56 -45 -110 -25 -54 -45 -103 -45
-108 0 -5 -17 -47 -38 -93 -21 -46 -47 -105 -58 -133 l-20 -50 -95 -3 -95 -3
-13 38 c-13 37 -60 150 -147 349 -24 56 -44 107 -44 113 0 7 -11 34 -25 61
l-25 50 93 0 93 0 15 -37z m4479 -268 l0 -305 -90 0 -90 0 0 305 0 305 90 0
90 0 0 -305z m-12257 -930 c159 -17 179 -21 290 -68 155 -64 262 -193 288
-347 19 -119 6 -282 -29 -349 -11 -20 -26 -49 -35 -66 -45 -83 -203 -183 -325
-205 -35 -6 -73 -15 -85 -20 -26 -10 -30 -8 118 -45 61 -16 123 -35 139 -43
38 -18 130 -83 134 -93 2 -4 17 -25 34 -46 16 -21 35 -49 40 -63 60 -149 50
-429 -19 -547 -13 -23 -50 -66 -82 -95 -83 -77 -180 -124 -313 -155 l-113 -27
-832 -3 -833 -4 0 1096 0 1095 740 0 c587 0 770 -3 883 -15z m16531 0 c200
-21 338 -73 438 -164 153 -140 194 -409 94 -624 -27 -59 -102 -144 -149 -169
-84 -45 -138 -66 -198 -77 -62 -12 -99 -26 -89 -33 3 -2 57 -16 120 -32 87
-22 132 -39 187 -73 86 -52 111 -80 159 -178 35 -71 37 -81 42 -198 6 -152 -7
-239 -48 -319 -33 -64 -115 -154 -166 -180 -16 -8 -49 -27 -75 -41 -25 -15
-97 -39 -160 -54 l-114 -27 -832 -3 -833 -4 0 1096 0 1095 740 0 c589 0 770
-3 884 -15z m-14191 -444 c9 -16 17 -34 17 -39 0 -6 23 -58 50 -116 28 -58 50
-110 50 -115 0 -6 16 -41 35 -80 19 -38 35 -73 35 -78 0 -4 21 -53 46 -108
107 -230 124 -267 124 -276 0 -5 23 -56 50 -114 28 -58 50 -109 50 -114 0 -6
16 -41 35 -80 19 -38 35 -73 35 -77 0 -9 79 -183 135 -299 18 -38 44 -95 56
-125 12 -30 28 -64 35 -75 8 -11 14 -23 14 -27 0 -5 -109 -8 -242 -8 l-243 1
-44 97 c-25 53 -62 133 -83 177 -21 45 -38 86 -38 93 0 9 -102 12 -457 10
l-457 -3 -22 -60 c-12 -33 -31 -76 -42 -95 -11 -19 -28 -55 -37 -80 -9 -25
-26 -66 -38 -92 l-20 -48 -234 0 c-202 0 -233 2 -233 15 0 9 17 52 39 98 110
233 131 279 131 285 0 4 21 52 46 107 107 229 124 267 124 275 0 5 23 56 50
114 28 58 50 109 50 115 0 5 15 40 34 77 18 38 37 80 41 94 4 14 24 59 45 100
21 41 41 86 45 100 4 14 22 54 40 90 18 36 36 77 40 90 7 24 57 130 83 178
l13 22 312 0 313 0 17 -29z m2462 10 c135 -20 240 -68 313 -145 118 -124 148
-450 62 -678 -37 -100 -138 -193 -228 -213 -45 -9 -49 -27 -19 -77 14 -24 46
-83 72 -133 26 -49 54 -101 61 -115 8 -14 18 -36 24 -50 6 -14 23 -45 39 -70
16 -25 54 -93 85 -152 l57 -108 -253 0 -253 1 -158 319 -159 320 -269 0 -269
0 0 -320 0 -320 -235 0 -235 0 0 881 0 881 643 -5 c409 -3 671 -9 722 -16z
m2285 -3 c91 -16 221 -72 262 -113 80 -79 105 -127 119 -230 14 -97 1 -222
-27 -277 -50 -96 -144 -164 -280 -203 -71 -21 -90 -35 -46 -35 74 0 220 -66
285 -129 58 -56 86 -134 94 -261 8 -128 -22 -236 -85 -308 -66 -75 -143 -120
-259 -150 l-98 -26 -677 -4 -678 -3 0 874 c0 480 3 877 7 881 5 4 298 5 653 3
507 -4 663 -8 730 -19z m2101 -40 c18 -35 44 -92 59 -128 46 -108 100 -231
136 -308 19 -40 34 -77 34 -81 0 -5 14 -38 32 -72 18 -35 46 -98 64 -139 17
-41 45 -106 61 -145 17 -38 41 -92 55 -120 14 -27 31 -68 38 -90 7 -21 28 -68
46 -103 19 -36 34 -69 34 -75 0 -6 11 -33 24 -61 117 -250 155 -334 161 -353
l6 -23 -240 0 -241 0 -19 38 c-10 20 -22 48 -26 62 -4 14 -25 61 -45 105 -21
44 -47 101 -58 128 l-21 47 -450 0 -450 0 -37 -77 c-20 -43 -42 -94 -49 -113
-7 -19 -27 -64 -44 -99 -17 -36 -31 -70 -31 -78 0 -10 -48 -13 -240 -13 -132
0 -240 2 -240 4 0 7 60 139 101 221 22 44 39 84 39 88 0 5 20 50 45 101 25 52
45 98 45 103 0 5 16 40 35 79 19 38 35 74 35 79 0 6 20 53 44 105 70 148 136
298 136 307 0 4 18 43 40 86 22 43 40 83 40 89 0 7 18 49 40 94 22 46 40 86
40 91 0 4 23 57 51 118 28 60 59 129 70 153 l19 42 315 0 315 0 31 -62z m2334
52 c168 -13 232 -28 326 -76 76 -39 136 -103 170 -179 42 -96 50 -410 14 -532
-34 -114 -126 -216 -228 -253 -34 -12 -64 -24 -66 -26 -2 -1 6 -16 18 -33 12
-17 27 -45 33 -63 6 -18 26 -55 43 -83 18 -27 37 -65 44 -84 6 -19 17 -42 25
-50 18 -21 66 -113 66 -127 0 -6 8 -18 17 -25 9 -8 31 -45 49 -84 19 -38 43
-85 55 -102 l21 -33 -254 0 -255 0 -54 110 c-30 60 -101 204 -159 320 l-105
210 -265 -2 -265 -3 -3 -317 -2 -318 -240 0 -240 0 0 880 0 880 558 0 c306 0
620 -5 697 -10z m2239 -52 c15 -35 43 -97 61 -138 18 -41 46 -105 64 -142 17
-36 31 -70 31 -75 0 -5 16 -40 35 -79 19 -38 35 -73 35 -79 0 -5 20 -51 44
-101 24 -50 47 -102 51 -115 4 -13 22 -53 40 -89 18 -36 36 -76 40 -90 4 -14
27 -65 51 -115 24 -49 44 -95 44 -101 0 -6 14 -37 31 -70 17 -32 37 -77 44
-99 7 -22 49 -116 94 -210 44 -93 81 -176 81 -183 0 -10 -52 -12 -242 -10
l-242 3 -20 50 c-11 28 -36 86 -57 130 -20 44 -48 106 -63 138 l-26 57 -451
-2 -451 -3 -69 -155 c-38 -85 -74 -170 -80 -187 l-11 -33 -239 0 c-131 0 -239
2 -239 4 0 6 66 151 111 241 21 44 51 109 65 145 14 36 33 74 40 85 8 11 14
26 14 34 0 7 23 64 51 125 108 234 129 282 129 291 0 6 16 42 36 80 19 39 47
99 61 135 14 36 29 70 33 75 5 6 19 39 33 75 14 36 39 93 56 127 17 34 31 65
31 69 0 4 21 53 46 108 25 56 52 116 60 134 l14 32 317 0 318 0 29 -62z
m-7797 -2619 c102 -38 144 -163 83 -247 -46 -64 -69 -75 -150 -70 -60 3 -73 7
-99 32 -39 37 -55 85 -49 148 6 58 30 95 84 125 43 25 87 29 131 12z m2894 0
c105 -36 152 -158 93 -244 -37 -56 -48 -63 -98 -75 -66 -14 -121 0 -165 44
-35 36 -36 38 -36 117 0 80 0 81 35 111 64 55 109 67 171 47z m-1314 -95 c62
-73 67 -149 15 -217 -129 -168 -381 12 -268 192 38 59 67 72 151 67 66 -3 71
-5 102 -42z m-722 -235 c22 -6 77 -29 123 -51 64 -32 100 -59 163 -121 44 -45
87 -95 96 -111 8 -17 24 -40 34 -52 11 -11 42 -67 70 -124 46 -93 52 -102 63
-84 38 68 246 292 293 317 10 5 29 20 43 33 14 13 41 30 60 39 19 9 57 29 84
46 27 16 99 44 160 62 96 27 126 32 226 32 104 -1 121 -3 180 -29 35 -15 83
-41 106 -57 57 -39 172 -152 218 -215 l38 -52 65 69 c36 38 70 69 75 69 5 0
29 14 54 31 25 17 84 42 132 57 75 23 105 27 217 27 114 0 140 -3 214 -27 108
-35 208 -96 299 -182 63 -60 162 -184 162 -203 0 -4 16 -38 37 -77 20 -40 49
-121 65 -184 39 -155 85 -253 134 -286 132 -86 764 -110 1214 -46 74 10 162
22 195 25 33 4 129 23 213 43 165 39 178 38 195 -12 13 -39 -11 -71 -67 -85
-68 -17 -417 -81 -536 -97 -142 -20 -697 -30 -901 -15 -193 13 -244 24 -337
68 -106 50 -162 134 -208 311 -79 307 -205 483 -427 595 -92 47 -98 48 -203
54 -135 7 -208 -6 -300 -52 -85 -43 -133 -81 -185 -147 l-39 -49 25 -37 c14
-20 25 -40 25 -44 0 -4 19 -46 41 -95 48 -100 94 -260 110 -379 13 -98 2 -172
-37 -249 -22 -43 -36 -57 -81 -79 -132 -64 -244 -7 -293 149 -22 69 -25 99
-25 215 1 87 6 162 17 210 9 41 19 92 23 114 3 21 19 71 35 111 l28 74 -44 65
c-59 87 -187 214 -254 251 -54 29 -58 30 -190 30 -80 -1 -153 -6 -180 -14 -68
-20 -188 -79 -254 -125 -96 -68 -301 -279 -336 -346 -7 -14 -22 -35 -33 -47
l-20 -23 26 -77 c14 -43 33 -105 41 -138 8 -33 23 -94 34 -135 29 -108 43
-214 49 -390 7 -206 -8 -337 -58 -503 -21 -72 -39 -136 -39 -143 0 -28 -102
-212 -135 -244 -34 -33 -40 -35 -102 -35 -64 0 -66 1 -99 40 -65 74 -83 124
-129 345 -22 105 -30 325 -16 440 13 106 63 327 87 386 8 22 24 58 34 80 11
23 22 54 26 70 10 37 101 229 132 277 20 31 23 42 14 60 -13 27 -43 95 -71
161 -12 28 -33 64 -46 82 -14 18 -25 37 -25 43 0 15 -105 130 -160 176 -186
153 -497 117 -778 -88 -107 -79 -227 -188 -271 -247 -23 -32 -23 -33 -8 -94
34 -129 88 -436 99 -551 5 -66 8 -203 5 -305 -4 -156 -9 -199 -30 -275 -48
-170 -75 -223 -145 -278 -77 -59 -161 -60 -253 -1 -44 28 -61 47 -87 97 -92
180 -94 427 -8 802 19 83 39 164 45 180 28 85 83 208 115 259 20 31 36 60 36
64 0 5 16 27 35 49 39 46 42 64 19 119 -82 200 -129 243 -254 235 -41 -3 -170
-75 -243 -136 -70 -58 -215 -161 -276 -195 -14 -8 -53 -31 -86 -51 -33 -20
-70 -39 -83 -43 -13 -5 -54 -23 -90 -41 -61 -30 -131 -52 -282 -91 -81 -21
-286 -29 -362 -15 -100 19 -241 67 -294 100 -27 17 -60 35 -73 41 -21 9 -84
60 -129 103 -49 47 -90 104 -132 182 -40 74 -51 105 -61 177 -11 77 -10 90 5
113 18 27 66 35 84 13 5 -7 15 -44 21 -83 20 -117 75 -217 169 -311 67 -67 99
-90 184 -132 187 -93 355 -111 588 -63 130 27 337 113 456 189 144 92 226 149
279 193 180 151 335 200 467 148 55 -21 119 -75 142 -119 8 -14 30 -56 49 -94
l36 -69 48 46 c206 195 375 299 605 371 53 17 257 20 313 5z"/>
<path d="M4655 7611 c-44 -9 -78 -35 -104 -82 -20 -35 -23 -51 -18 -101 5 -55
10 -65 48 -104 42 -43 45 -44 106 -44 58 0 66 3 103 36 76 69 79 171 7 248
-44 46 -80 58 -142 47z"/>
<path d="M5504 7610 c-44 -10 -52 -17 -85 -68 -48 -75 -37 -159 29 -229 29
-31 35 -33 98 -33 65 0 67 1 110 44 l44 43 0 76 c0 75 0 75 -42 120 -46 49
-90 62 -154 47z"/>
<path d="M6410 7613 c-35 -7 -78 -40 -95 -73 -9 -17 -15 -56 -15 -95 0 -116
45 -165 150 -165 59 0 65 2 97 37 43 45 53 71 53 135 0 53 -34 123 -70 145
-20 13 -88 22 -120 16z"/>
<path d="M7195 7588 c-19 -18 -37 -45 -41 -60 l-6 -28 151 0 151 0 -25 50
c-30 59 -51 70 -136 70 -53 0 -63 -3 -94 -32z"/>
<path d="M8653 7390 c-51 -12 -64 -28 -61 -74 3 -38 6 -42 43 -54 57 -19 112
-7 153 34 27 27 33 40 30 66 l-3 33 -65 2 c-36 1 -80 -2 -97 -7z"/>
<path d="M11332 7390 c-45 -11 -72 -38 -72 -71 0 -51 72 -80 146 -59 57 16 86
51 82 99 l-3 36 -60 2 c-33 1 -75 -2 -93 -7z"/>
<path d="M13342 7610 c-43 -10 -70 -35 -93 -85 -25 -53 -24 -109 2 -163 29
-59 69 -82 141 -82 46 0 62 5 87 25 60 51 76 153 37 236 -27 57 -101 86 -174
69z"/>
<path d="M15402 7390 c-44 -10 -72 -37 -72 -70 0 -32 11 -42 61 -60 30 -11 45
-11 83 0 59 16 88 51 84 99 l-3 36 -60 2 c-33 1 -75 -2 -93 -7z"/>
<path d="M16673 7610 c-23 -9 -73 -76 -73 -97 0 -10 36 -13 150 -13 98 0 150
4 150 10 0 23 -31 69 -59 89 -31 22 -124 28 -168 11z"/>
<path d="M1640 5890 l0 -272 378 5 c467 5 500 11 579 91 46 47 52 58 58 110 9
71 -1 179 -20 216 -17 34 -77 82 -125 101 -27 10 -129 14 -452 17 l-418 3 0
-271z"/>
<path d="M1640 4975 l0 -287 383 5 c211 3 415 10 456 17 71 11 131 38 159 73
37 44 54 211 30 305 -20 85 -55 117 -162 149 -41 13 -130 16 -458 20 l-408 5
0 -287z"/>
<path d="M18170 5890 l0 -272 378 5 c461 6 516 15 588 96 72 81 68 288 -8 368
-12 13 -46 33 -77 45 -54 22 -67 23 -468 26 l-413 3 0 -271z"/>
<path d="M18170 4976 l0 -286 293 0 c296 0 530 12 602 31 23 6 57 27 82 51 48
47 63 96 63 203 0 107 -15 156 -63 203 -71 69 -105 74 -574 79 l-403 4 0 -285z"/>
<path d="M4627 5712 c-15 -33 -27 -63 -27 -66 0 -4 -15 -39 -34 -79 -18 -40
-37 -83 -41 -97 -4 -14 -25 -62 -46 -108 -22 -46 -39 -86 -39 -89 0 -3 -20
-51 -44 -107 -25 -56 -48 -114 -51 -129 l-7 -27 319 0 c176 0 323 3 326 7 4 3
1 16 -6 27 -8 12 -20 39 -27 61 -7 22 -30 76 -50 120 -21 44 -43 98 -50 120
-7 22 -16 45 -20 50 -5 6 -30 62 -56 125 -26 63 -59 144 -74 179 -14 36 -31
66 -37 68 -5 2 -22 -23 -36 -55z"/>
<path d="M6570 5540 l0 -272 318 5 c256 3 329 8 377 21 127 36 140 58 140 236
0 74 -3 147 -8 162 -4 16 -24 39 -47 54 -70 46 -130 54 -467 61 l-313 6 0
-273z"/>
<path d="M8848 5805 c-5 -5 -8 -104 -8 -222 l0 -213 290 0 c296 0 413 11 465
44 37 24 67 101 67 172 -1 118 -34 169 -132 199 -44 14 -114 18 -365 22 -170
3 -313 2 -317 -2z"/>
<path d="M8845 5068 c-3 -7 -4 -110 -3 -228 l3 -215 300 1 c165 0 331 4 369 8
63 7 73 12 113 49 39 37 45 49 55 107 15 89 -1 164 -47 218 -50 57 -95 64
-472 69 -259 4 -314 3 -318 -9z"/>
<path d="M11482 5750 c-5 -14 -25 -59 -45 -100 -19 -41 -40 -93 -47 -115 -7
-22 -16 -45 -21 -50 -4 -6 -23 -48 -42 -95 -19 -47 -50 -121 -70 -165 -19 -44
-42 -102 -52 -128 -10 -26 -22 -50 -26 -53 -5 -3 -9 -12 -9 -20 0 -12 49 -14
325 -14 272 0 325 2 325 14 0 8 -17 52 -39 98 -21 45 -42 94 -46 108 -4 14
-22 57 -40 95 -18 39 -36 81 -40 95 -4 14 -24 61 -44 105 -21 44 -48 108 -62
142 -13 34 -31 73 -41 85 l-17 23 -9 -25z"/>
<path d="M13417 5803 c-4 -3 -7 -125 -7 -270 l0 -263 253 0 c367 0 501 20 545
80 28 37 41 98 42 187 0 202 -47 245 -290 263 -145 11 -534 13 -543 3z"/>
<path d="M16027 5692 c-21 -42 -37 -81 -37 -86 0 -5 -20 -53 -45 -106 -24 -54
-51 -115 -59 -136 -24 -66 -93 -229 -120 -286 -14 -30 -26 -58 -26 -61 0 -4
149 -7 330 -7 182 0 330 2 330 5 0 3 -17 40 -38 83 -21 43 -42 90 -46 106 -4
15 -18 51 -32 79 -14 29 -34 75 -44 102 -10 28 -33 84 -53 125 -19 41 -38 86
-42 100 -10 33 -66 149 -75 155 -3 2 -23 -31 -43 -73z"/>
<path d="M11437 2408 c-34 -110 -41 -166 -42 -323 0 -147 2 -163 23 -203 27
-50 57 -67 105 -58 31 6 37 12 51 53 21 62 20 151 -3 264 -18 87 -30 124 -66
204 -7 17 -16 41 -20 55 -4 14 -13 33 -20 43 -11 15 -14 11 -28 -35z"/>
<path d="M8405 2303 c-60 -112 -131 -329 -151 -458 -9 -55 -20 -129 -26 -165
-5 -36 -10 -123 -11 -195 0 -105 4 -146 22 -212 26 -93 51 -126 109 -144 36
-10 44 -9 74 9 19 12 46 43 60 69 52 98 96 375 84 538 -15 219 -86 645 -107
645 -4 0 -28 -39 -54 -87z"/>
<path d="M9970 2208 c-8 -18 -32 -74 -55 -123 -24 -50 -46 -106 -50 -125 -4
-19 -11 -39 -15 -45 -18 -25 -61 -179 -76 -275 -31 -199 -15 -516 33 -665 20
-65 61 -135 78 -135 17 0 75 78 75 101 0 10 4 20 9 23 25 16 112 331 132 481
22 171 -11 446 -88 720 -21 77 -27 83 -43 43z"/>
</g>
</svg>
